<svg width="34" height="34" viewBox="0 0 34 34" fill="none" xmlns="http://www.w3.org/2000/svg">
<g id="airplay" opacity="0.5">
<path id="Vector" d="M7.09816 24.0596H5.72853C5.00203 24.0596 4.30528 23.771 3.79157 23.2573C3.27786 22.7436 2.98926 22.0469 2.98926 21.3204V7.62403C2.98926 6.89753 3.27786 6.20079 3.79157 5.68708C4.30528 5.17337 5.00203 4.88477 5.72853 4.88477H27.6427C28.3692 4.88477 29.0659 5.17337 29.5796 5.68708C30.0933 6.20079 30.3819 6.89753 30.3819 7.62403V21.3204C30.3819 22.0469 30.0933 22.7436 29.5796 23.2573C29.0659 23.771 28.3692 24.0596 27.6427 24.0596H26.273" stroke="black" stroke-width="2.73927" stroke-linecap="round" stroke-linejoin="round"/>
<path id="Vector_2" d="M16.6861 21.3184L23.5342 29.5362H9.83789L16.6861 21.3184Z" stroke="black" stroke-width="2.73927" stroke-linecap="round" stroke-linejoin="round"/>
</g>
</svg>
