<svg width="24" height="25" viewBox="0 0 24 25" fill="none" xmlns="http://www.w3.org/2000/svg">
<g id="arrange-by-letters-a-z">
<path id="Vector" d="M4 14.343H8.42109C9.35119 14.343 9.81624 14.343 9.94012 14.6231C10.064 14.9033 9.74755 15.2393 9.11466 15.9114L5.47691 19.7746C4.84402 20.4467 4.52757 20.7827 4.65145 21.0629C4.77533 21.343 5.24038 21.343 6.17048 21.343H10" stroke="black" stroke-width="1.5" stroke-linecap="round" stroke-linejoin="round"/>
<path id="Vector_2" d="M4 9.34302L6.10557 4.64829C6.49585 3.77811 6.69098 3.34302 7 3.34302C7.30902 3.34302 7.50415 3.77811 7.89443 4.64829L10 9.34302" stroke="black" stroke-width="1.5" stroke-linecap="round" stroke-linejoin="round"/>
<path id="Vector_3" d="M17.5 20.343V4.34302M17.5 20.343C16.7998 20.343 15.4915 18.3487 15 17.843M17.5 20.343C18.2002 20.343 19.5085 18.3487 20 17.843" stroke="black" stroke-width="1.5" stroke-linecap="round" stroke-linejoin="round"/>
</g>
</svg>
