<svg width="34" height="35" viewBox="0 0 34 35" fill="none" xmlns="http://www.w3.org/2000/svg">
<rect x="0.0961094" y="0.634766" width="33.8307" height="33.8307" rx="7.51792" fill="#FFCC91" fill-opacity="0.16"/>
<path fill-rule="evenodd" clip-rule="evenodd" d="M20.5462 24.9879H14.0089C11.6076 24.9879 9.76537 24.1206 10.2886 20.6297L10.8979 15.8987C11.2205 14.1569 12.3316 13.4902 13.3064 13.4902H21.2774C22.2666 13.4902 23.3131 14.207 23.6859 15.8987L24.2951 20.6297C24.7396 23.7263 22.9475 24.9879 20.5462 24.9879Z" stroke="#130F26" stroke-width="1.40961" stroke-linecap="round" stroke-linejoin="round"/>
<path d="M20.6537 13.3189C20.6537 11.4504 19.139 9.93558 17.2704 9.93558V9.93558C16.3706 9.93176 15.5063 10.2865 14.8687 10.9215C14.2311 11.5564 13.8727 12.4191 13.8727 13.3189V13.3189" stroke="#130F26" stroke-width="1.40961" stroke-linecap="round" stroke-linejoin="round"/>
<path d="M19.5929 16.8447H19.557" stroke="#130F26" stroke-width="1.40961" stroke-linecap="round" stroke-linejoin="round"/>
<path d="M15.0268 16.8447H14.9909" stroke="#130F26" stroke-width="1.40961" stroke-linecap="round" stroke-linejoin="round"/>
</svg>
