<svg width="24" height="25" viewBox="0 0 24 25" fill="none" xmlns="http://www.w3.org/2000/svg">
<g id="customer-service-02">
<path id="Vector" d="M17 14.1475C17 13.8018 17 13.629 17.052 13.475C17.2032 13.0274 17.6018 12.8538 18.0011 12.6719C18.45 12.4674 18.6744 12.3652 18.8968 12.3472C19.1493 12.3268 19.4022 12.3812 19.618 12.5023C19.9041 12.6628 20.1036 12.9679 20.3079 13.216C21.2512 14.3618 21.7229 14.9348 21.8955 15.5666C22.0348 16.0764 22.0348 16.6096 21.8955 17.1194C21.6438 18.0409 20.8485 18.8134 20.2598 19.5284C19.9587 19.8941 19.8081 20.077 19.618 20.1837C19.4022 20.3048 19.1493 20.3592 18.8968 20.3388C18.6744 20.3208 18.45 20.2186 18.0011 20.0141C17.6018 19.8322 17.2032 19.6586 17.052 19.211C17 19.057 17 18.8842 17 18.5385V14.1475Z" stroke="black" stroke-width="1.5"/>
<path id="Vector_2" d="M9.5 21.343C10.8807 22.6763 13.1193 22.6763 14.5 21.343" stroke="black" stroke-width="1.5" stroke-linecap="round" stroke-linejoin="round"/>
<path id="Vector_3" d="M7 14.1475C7 13.7123 6.98778 13.3212 6.63591 13.0152C6.50793 12.9039 6.33825 12.8266 5.99891 12.672C5.55001 12.4676 5.32556 12.3654 5.10316 12.3474C4.43591 12.2934 4.07692 12.7488 3.69213 13.2161C2.74875 14.3619 2.27706 14.9348 2.10446 15.5666C1.96518 16.0764 1.96518 16.6096 2.10446 17.1194C2.3562 18.0409 3.15152 18.8132 3.74021 19.5282C4.11129 19.9789 4.46577 20.3902 5.10316 20.3386C5.32556 20.3206 5.55001 20.2184 5.99891 20.0139C6.33825 19.8594 6.50793 19.7821 6.63591 19.6708C6.98778 19.3648 7 18.9737 7 18.5384V14.1475Z" stroke="black" stroke-width="1.5"/>
<path id="Vector_4" d="M2 16.343V12.343C2 6.82017 6.47715 2.34302 12 2.34302C17.5228 2.34302 22 6.82017 22 12.343L22.0001 16.343" stroke="black" stroke-width="1.5" stroke-linecap="round" stroke-linejoin="round"/>
</g>
</svg>
