<svg width="23" height="23" viewBox="0 0 23 23" fill="none" xmlns="http://www.w3.org/2000/svg">
<g id="help-circle">
<path id="Vector" d="M11.4619 20.6758C16.5048 20.6758 20.5928 16.5878 20.5928 11.545C20.5928 6.5021 16.5048 2.41406 11.4619 2.41406C6.41909 2.41406 2.33105 6.5021 2.33105 11.545C2.33105 16.5878 6.41909 20.6758 11.4619 20.6758Z" stroke="#2B2D42" stroke-width="2.19141" stroke-linecap="round" stroke-linejoin="round"/>
<path id="Vector_2" d="M8.80566 8.80487C9.02033 8.19463 9.44405 7.68005 10.0018 7.35227C10.5595 7.0245 11.2152 6.90468 11.8528 7.01404C12.4904 7.12341 13.0687 7.45489 13.4853 7.94979C13.9019 8.44469 14.1299 9.07106 14.129 9.71796C14.129 11.5441 11.3897 12.4572 11.3897 12.4572" stroke="#2B2D42" stroke-width="2.19141" stroke-linecap="round" stroke-linejoin="round"/>
<path id="Vector_3" d="M11.4629 16.1113H11.4706" stroke="#2B2D42" stroke-width="2.19141" stroke-linecap="round" stroke-linejoin="round"/>
</g>
</svg>
