<svg width="24" height="25" viewBox="0 0 24 25" fill="none" xmlns="http://www.w3.org/2000/svg">
<g id="invoice-04">
<path id="Vector" d="M16.4407 21.6908L16.9929 21.0006C17.4781 20.3941 18.5085 20.443 18.9184 21.0918C19.4114 21.8725 20.6292 21.7173 20.9669 20.9992C20.9845 20.9619 20.9405 21.0553 20.9781 20.7322C21.0156 20.4091 21 20.3353 20.9687 20.1878L19.0456 11.1071C18.5623 8.82497 18.3206 7.68388 17.4893 7.01345C16.6581 6.34302 15.4848 6.34302 13.1384 6.34302H10.8616C8.51517 6.34302 7.34194 6.34302 6.51066 7.01345C5.67937 7.68388 5.43771 8.82497 4.95439 11.1071L3.0313 20.1878C3.00004 20.3353 2.98441 20.4091 3.02194 20.7322C3.05946 21.0553 3.01554 20.9619 3.0331 20.9992C3.37084 21.7173 4.58856 21.8725 5.08165 21.0918C5.49152 20.443 6.52187 20.3941 7.00709 21.0006L7.55934 21.6908C8.25514 22.5604 9.70819 22.5604 10.404 21.6908L10.4908 21.5822C11.2291 20.6595 12.7709 20.6595 13.5092 21.5822L13.596 21.6908C14.2918 22.5604 15.7449 22.5604 16.4407 21.6908Z" stroke="black" stroke-width="1.5" stroke-linejoin="round"/>
<path id="Vector_2" d="M2.48336 9.84302C1.89805 9.23501 2.00824 8.45195 2.00824 6.49478C2.00824 4.53762 2.00824 3.55904 2.59355 2.95103C3.17886 2.34302 4.1209 2.34302 6.00497 2.34302H17.9952C19.8792 2.34302 20.8213 2.34302 21.4066 2.95103C21.9919 3.55904 21.9919 4.53762 21.9919 6.49478C21.9919 8.45195 22.1014 9.23501 21.5161 9.84302" stroke="black" stroke-width="1.5" stroke-linecap="round"/>
<path id="Vector_3" d="M12 10.343H9" stroke="black" stroke-width="1.5" stroke-linecap="round" stroke-linejoin="round"/>
<path id="Vector_4" d="M14 14.343H8" stroke="black" stroke-width="1.5" stroke-linecap="round" stroke-linejoin="round"/>
</g>
</svg>
