<svg width="24" height="25" viewBox="0 0 24 25" fill="none" xmlns="http://www.w3.org/2000/svg">
<g id="settings-01">
<path id="Vector" d="M21.3175 7.48441L20.8239 6.62781C20.4506 5.97998 20.264 5.65607 19.9464 5.5269C19.6288 5.39774 19.2696 5.49966 18.5513 5.7035L17.3311 6.0472C16.8725 6.15296 16.3913 6.09296 15.9726 5.87781L15.6357 5.68344C15.2766 5.45345 15.0004 5.11435 14.8475 4.71576L14.5136 3.71838C14.294 3.05836 14.1842 2.72835 13.9228 2.53959C13.6615 2.35083 13.3143 2.35083 12.6199 2.35083H11.5051C10.8108 2.35083 10.4636 2.35083 10.2022 2.53959C9.94085 2.72835 9.83106 3.05836 9.61149 3.71838L9.27753 4.71576C9.12465 5.11435 8.84845 5.45345 8.48937 5.68344L8.15249 5.87781C7.73374 6.09296 7.25259 6.15296 6.79398 6.0472L5.57375 5.7035C4.85541 5.49966 4.49625 5.39774 4.17867 5.5269C3.86109 5.65607 3.67445 5.97998 3.30115 6.62781L2.80757 7.48441C2.45766 8.09166 2.2827 8.39529 2.31666 8.71851C2.35061 9.04173 2.58483 9.3022 3.05326 9.82314L4.0843 10.9758C4.3363 11.2948 4.51521 11.8508 4.51521 12.3507C4.51521 12.8508 4.33636 13.4066 4.08433 13.7257L3.05326 14.8784C2.58483 15.3994 2.35062 15.6598 2.31666 15.9831C2.2827 16.3063 2.45766 16.6099 2.80757 17.2171L3.30114 18.0737C3.67443 18.7215 3.86109 19.0455 4.17867 19.1746C4.49625 19.3038 4.85542 19.2019 5.57377 18.998L6.79394 18.6543C7.25263 18.5485 7.73387 18.6086 8.15267 18.8238L8.4895 19.0182C8.84851 19.2482 9.12464 19.5872 9.2775 19.9858L9.61149 20.9833C9.83106 21.6433 9.94085 21.9733 10.2022 22.1621C10.4636 22.3508 10.8108 22.3508 11.5051 22.3508H12.6199C13.3143 22.3508 13.6615 22.3508 13.9228 22.1621C14.1842 21.9733 14.294 21.6433 14.5136 20.9833L14.8476 19.9858C15.0004 19.5872 15.2765 19.2482 15.6356 19.0182L15.9724 18.8238C16.3912 18.6086 16.8724 18.5485 17.3311 18.6543L18.5513 18.998C19.2696 19.2019 19.6288 19.3038 19.9464 19.1746C20.264 19.0455 20.4506 18.7215 20.8239 18.0737L21.3175 17.2171C21.6674 16.6099 21.8423 16.3063 21.8084 15.9831C21.7744 15.6598 21.5402 15.3994 21.0718 14.8784L20.0407 13.7257C19.7887 13.4066 19.6098 12.8508 19.6098 12.3507C19.6098 11.8508 19.7888 11.2948 20.0407 10.9758L21.0718 9.82314C21.5402 9.3022 21.7744 9.04173 21.8084 8.71851C21.8423 8.39529 21.6674 8.09166 21.3175 7.48441Z" stroke="black" stroke-width="1.5" stroke-linecap="round"/>
<path id="Vector_2" d="M15.5195 12.343C15.5195 14.276 13.9525 15.843 12.0195 15.843C10.0865 15.843 8.51953 14.276 8.51953 12.343C8.51953 10.41 10.0865 8.84302 12.0195 8.84302C13.9525 8.84302 15.5195 10.41 15.5195 12.343Z" stroke="black" stroke-width="1.5"/>
</g>
</svg>
