<svg width="27" height="27" viewBox="0 0 27 27" fill="none" xmlns="http://www.w3.org/2000/svg">
<rect x="0.47168" y="0.193359" width="26.2917" height="26.2917" rx="6.57292" fill="#FFF2E2"/>
<path d="M18.6333 11.6055C18.6333 11.6055 18.2615 16.2168 18.0458 18.1592C17.9431 19.087 17.37 19.6306 16.4313 19.6477C14.645 19.6799 12.8566 19.6819 11.071 19.6443C10.1679 19.6258 9.60441 19.0753 9.50376 18.164C9.28672 16.2045 8.91699 11.6055 8.91699 11.6055" stroke="#130F26" stroke-width="1.23242" stroke-linecap="round" stroke-linejoin="round"/>
<path d="M19.5805 9.39507H7.96973" stroke="#130F26" stroke-width="1.23242" stroke-linecap="round" stroke-linejoin="round"/>
<path d="M17.3434 9.39471C16.806 9.39471 16.3431 9.01471 16.2377 8.48819L16.0713 7.65562C15.9686 7.27151 15.6208 7.00586 15.2244 7.00586H12.3261C11.9297 7.00586 11.5819 7.27151 11.4792 7.65562L11.3128 8.48819C11.2073 9.01471 10.7445 9.39471 10.207 9.39471" stroke="#130F26" stroke-width="1.23242" stroke-linecap="round" stroke-linejoin="round"/>
</svg>
