<svg width="24" height="25" viewBox="0 0 24 25" fill="none" xmlns="http://www.w3.org/2000/svg">
<g id="user">
<path id="Vector" d="M6.57757 15.8246C5.1628 16.667 1.45336 18.3871 3.71266 20.5396C4.81631 21.591 6.04549 22.343 7.59087 22.343H16.4091C17.9545 22.343 19.1837 21.591 20.2873 20.5396C22.5466 18.3871 18.8372 16.667 17.4224 15.8246C14.1048 13.8491 9.89519 13.8491 6.57757 15.8246Z" stroke="black" stroke-width="1.5" stroke-linecap="round" stroke-linejoin="round"/>
<path id="Vector_2" d="M16.5 6.84302C16.5 9.3283 14.4853 11.343 12 11.343C9.51472 11.343 7.5 9.3283 7.5 6.84302C7.5 4.35774 9.51472 2.34302 12 2.34302C14.4853 2.34302 16.5 4.35774 16.5 6.84302Z" stroke="black" stroke-width="1.5"/>
</g>
</svg>
